<?xml version="1.0" encoding="utf-8"?>
<!-- Generator: Adobe Illustrator 16.0.0, SVG Export Plug-In . SVG Version: 6.00 Build 0)  -->
<!DOCTYPE svg PUBLIC "-//W3C//DTD SVG 1.1//EN" "http://www.w3.org/Graphics/SVG/1.1/DTD/svg11.dtd">
<svg version="1.1" id="Layer_1" xmlns="http://www.w3.org/2000/svg" xmlns:xlink="http://www.w3.org/1999/xlink" x="0px" y="0px"
	 width="838.777px" height="208.652px" viewBox="-198.976 -50.249 838.777 208.652"
	 enable-background="new -198.976 -50.249 838.777 208.652" xml:space="preserve">
<g>
	<g>
		
			<rect x="-108.798" y="39.389" transform="matrix(0.3176 0.9482 -0.9482 0.3176 -13.3001 126.6597)" fill="#5BB758" width="28.293" height="29.401"/>
		<g>
			<g>
				<path fill="#69E9EA" d="M-123.332-41.517c-71.685,21.507-88.424,52.571-66.911,124.271
					c21.511,71.695,52.585,88.429,124.274,66.913C5.73,128.156,22.461,97.089,0.95,25.397
					C-20.557-46.302-51.629-63.023-123.332-41.517z M-35.317,71.941l-13.514,4.523l4.68,13.992
					c1.899,5.663-1.149,11.792-6.821,13.688c-1.235,0.414-2.483,0.592-3.708,0.565c-4.42-0.119-8.498-2.949-9.978-7.38
					l-4.687-13.996l-27.88,9.345l4.686,13.982c1.901,5.667-1.157,11.798-6.821,13.702c-1.235,0.407-2.487,0.586-3.707,0.551
					c-4.42-0.115-8.498-2.948-9.978-7.374l-4.686-13.994l-13.522,4.536c-1.227,0.405-2.487,0.584-3.713,0.55
					c-4.416-0.114-8.491-2.95-9.972-7.383c-1.897-5.656,1.149-11.79,6.821-13.691l13.524-4.525l-8.995-26.835l-13.518,4.529
					c-1.235,0.415-2.485,0.592-3.718,0.559c-4.415-0.109-8.487-2.941-9.97-7.382c-1.898-5.656,1.16-11.792,6.814-13.682
					l13.527-4.539l-4.686-13.981c-1.899-5.673,1.147-11.802,6.819-13.691c5.666-1.901,11.797,1.157,13.692,6.814l4.681,13.998
					l27.888-9.337L-96.75,1.494c-1.903-5.665,1.164-11.79,6.821-13.691c5.666-1.895,11.797,1.163,13.692,6.824l4.68,13.987
					l13.53-4.531c5.665-1.89,11.784,1.166,13.682,6.826c1.897,5.665-1.149,11.79-6.819,13.691l-13.521,4.523l8.986,26.845
					l13.523-4.537c5.663-1.894,11.792,1.159,13.69,6.824C-26.593,63.915-29.651,70.05-35.317,71.941z"/>
			</g>
		</g>
	</g>
</g>
<rect x="-108.798" y="39.389" transform="matrix(0.3176 0.9482 -0.9482 0.3176 -13.3001 126.6597)" fill="#44BCB9" width="28.293" height="29.401"/>
<polygon fill="#69E9EA" points="-113.08,44.989 -104.093,71.819 -76.208,62.487 -87.672,42.428 "/>
<path fill="#44BCB9" d="M-123.332-31.736C-51.629-53.241-20.557-36.519,0.944,35.182c5.043,16.813,7.96,31.372,8.58,44.11
	c0.795-14.924-2.192-32.607-8.58-53.892c-21.501-71.703-52.573-88.423-124.276-66.917c-54.876,16.46-77.522,38.55-75.49,80.152
	C-196.946,3.256-173.738-16.616-123.332-31.736z"/>
<g>
	<g>
		<g>
			<g>
				<polygon fill="#57D3D0" points="-113.08,45.324 -104.093,72.156 -76.208,62.822 -95.819,59.88 				"/>
			</g>
			<g>
				<path fill="#57D3D0" d="M-96.22,3.109c-1.198,2.46-1.474,5.371-0.537,8.165l1.745,5.202l2.949-0.991L-96.22,3.109z"/>
			</g>
			<g>
				<path fill="#57D3D0" d="M-144.605,19.313c-1.196,2.457-1.478,5.358-0.541,8.171l1.739,5.187l2.948-0.985L-144.605,19.313z"/>
			</g>
			<g>
				<path fill="#57D3D0" d="M-35.317,71.941l-13.514,4.523l2.942,8.802l10.57-3.544c5.668-1.892,8.722-8.023,6.83-13.692
					c-0.175-0.505-0.407-0.959-0.643-1.419C-30.376,69.044-32.521,71.009-35.317,71.941z"/>
			</g>
		</g>
		<g>
			<g>
				<path fill="#57D3D0" d="M-51.175,24.596l-13.519,4.523l2.949,8.791l10.57-3.533c5.668-1.903,8.72-8.029,6.821-13.693
					c-0.164-0.507-0.407-0.951-0.637-1.42C-46.239,21.695-48.383,23.662-51.175,24.596z"/>
			</g>
			<g>
				<path fill="#57D3D0" d="M-160.799,59.679c1.486,4.443,5.558,7.272,9.97,7.384c1.235,0.032,2.485-0.144,3.72-0.56l13.518-4.529
					l6.044,18.038l2.948-0.985l-8.992-26.834l-13.518,4.529c-1.235,0.414-2.485,0.591-3.72,0.558
					c-3.903-0.095-7.537-2.34-9.355-5.927C-161.447,53.847-161.76,56.828-160.799,59.679z"/>
			</g>
			<g>
				<path fill="#57D3D0" d="M-50.968,104.142c-1.235,0.414-2.483,0.592-3.708,0.565c-4.42-0.119-8.496-2.949-9.978-7.38
					l-4.686-13.996l-27.881,9.345l2.947,8.79l24.934-8.355l4.686,13.998c1.482,4.43,5.558,7.264,9.978,7.378
					c1.229,0.028,2.474-0.15,3.708-0.563c5.668-1.895,8.72-8.025,6.821-13.687l-0.54-1.619
					C-45.915,101.141-48.105,103.181-50.968,104.142z"/>
			</g>
			<g>
				<path fill="#57D3D0" d="M-99.357,120.361c-1.235,0.407-2.487,0.586-3.708,0.551c-4.419-0.115-8.496-2.948-9.978-7.374
					l-4.686-13.994l-13.522,4.536c-1.227,0.405-2.487,0.584-3.715,0.551c-3.905-0.107-7.538-2.352-9.355-5.93
					c-1.27,2.498-1.58,5.472-0.615,8.329c1.482,4.432,5.558,7.267,9.97,7.382c1.229,0.036,2.491-0.146,3.715-0.554l13.522-4.535
					l4.686,13.996c1.481,4.428,5.559,7.263,9.978,7.372c1.222,0.038,2.474-0.143,3.708-0.548c5.666-1.901,8.72-8.035,6.821-13.7
					l-0.536-1.611C-94.305,117.349-96.492,119.397-99.357,120.361z"/>
			</g>
			<g>
				<path fill="#57D3D0" d="M-81.966,127.532c-59.272,0-108.348-42.732-116.869-98.452c-0.752,14.891,2.234,32.497,8.588,53.674
					c21.51,71.695,52.585,88.429,124.274,66.913c47.282-14.181,70.645-32.53,74.916-63.928
					C-12.731,111.269-45.407,127.532-81.966,127.532z"/>
			</g>
		</g>
	</g>
</g>
<g>
	<g>
		<path fill="#5656F4" d="M345.298,135.239c-2.115,0-3.745-0.045-4.891-0.135c-1.149-0.095-2.02-0.415-2.618-0.965
			c-0.6-0.554-0.965-1.405-1.101-2.551c-0.14-1.149-0.205-2.779-0.205-4.895v-82.41h-3.171c-1.289,0-2.325-0.388-3.1-1.17
			c-0.783-0.78-1.17-1.813-1.17-3.101v-5.927c0-0.456,0.134-1.055,0.411-1.792c0.278-0.733,0.505-1.192,0.688-1.377
			c1.103-0.916,2.387-1.792,3.862-2.619c1.285-0.733,2.822-1.377,4.617-1.929c1.79-0.55,3.878-0.827,6.271-0.827
			c1.929,0,3.672,0.368,5.237,1.102c1.56,0.737,2.845,1.607,3.858,2.617l3.581-1.515c3.855-1.562,8.357-2.344,13.505-2.344h0.136
			c2.389,0,4.708,0.254,6.961,0.759c2.25,0.505,4.017,1.034,5.302,1.584c5.884,2.756,10.358,7.029,13.442,12.817
			c3.075,5.789,4.616,12.726,4.616,20.809c0,5.147-0.807,9.97-2.412,14.473c-1.608,4.503-3.651,8.361-6.134,11.575
			c-2.574,3.309-5.373,5.673-8.406,7.099c-3.032,1.427-5.648,2.412-7.851,2.962c-1.749,0.46-3.473,0.758-5.172,0.897
			c-1.703,0.135-3.514,0.207-5.443,0.207c-1.744,0-3.308,0-4.688,0c-1.376,0-2.57-0.095-3.578-0.281
			c-0.185,0-0.369-0.043-0.55-0.134c-0.188-0.096-0.37-0.187-0.555-0.276v28.799c0,2.115-0.116,3.745-0.343,4.895
			c-0.229,1.147-0.689,1.997-1.379,2.551c-0.689,0.55-1.699,0.87-3.033,0.965c-1.33,0.09-3.056,0.136-5.166,0.136L345.298,135.239
			L345.298,135.239z M371.347,43.455c-1.014-0.181-2.435-0.226-4.273-0.136c-1.839,0.094-3.858,0.645-6.064,1.654
			c-1.742,0.735-3.171,1.515-4.272,2.344v32.801c1.192,0.185,2.616,0.32,4.272,0.41c1.652,0.095,3.398,0.14,5.237,0.14
			c3.396,0,5.604-0.365,6.613-1.104c1.744-0.825,3.123-2.02,4.139-3.581c1.008-1.562,1.79-3.311,2.34-5.239
			c0.555-1.93,0.92-3.949,1.104-6.063c0.183-2.114,0.229-4.179,0.134-6.202c-0.091-1.745-0.253-3.467-0.482-5.172
			c-0.228-1.696-0.667-3.237-1.308-4.616c-0.645-1.375-1.563-2.525-2.754-3.444C374.836,44.333,373.275,43.734,371.347,43.455z"/>
		<path fill="#5656F4" d="M434.328,26.094c1.379-0.183,3.124-0.343,5.238-0.482c2.109-0.138,4.224-0.207,6.337-0.207h1.104
			c1.375,0,2.703,0.024,3.994,0.069c1.283,0.047,2.387,0.252,3.309,0.62c0.919,0.367,1.651,0.895,2.204,1.584
			c0.554,0.688,0.829,1.722,0.829,3.099c0,0.461-0.066,1.102-0.206,1.929c-0.14,0.829-0.343,1.609-0.621,2.344l-0.685,2.066
			c-0.463,1.377-0.878,2.551-1.245,3.516c-0.363,0.965-0.803,1.722-1.308,2.272c-0.511,0.55-1.194,0.921-2.068,1.104
			c-0.874,0.183-1.997,0.185-3.376,0c-1.652-0.277-3.079-0.415-4.273-0.415c-2.113,0-4.295,0.117-6.545,0.343
			c-2.255,0.233-4.341,0.577-6.27,1.036v44.376c0,3.492-0.482,5.81-1.447,6.957c-0.965,1.149-3.058,1.725-6.27,1.725h-4.963
			c-1.654,0-3.013-0.091-4.065-0.277c-1.055-0.181-1.861-0.596-2.411-1.239c-0.551-0.641-0.92-1.538-1.099-2.688
			c-0.19-1.15-0.281-2.641-0.281-4.479l0.281-45.34h-3.175c-1.194,0-2.204-0.415-3.029-1.242c-0.829-0.829-1.243-1.884-1.243-3.171
			v-5.923c0-1.008,0.162-1.743,0.482-2.204c0.323-0.458,0.572-0.733,0.761-0.825c1.101-0.919,2.385-1.793,3.858-2.619
			c1.285-0.735,2.828-1.377,4.617-1.929c1.794-0.552,3.882-0.825,6.271-0.825c1.929,0,3.581,0.297,4.962,0.895
			c1.376,0.597,2.57,1.356,3.582,2.274c1.01-0.552,2.11-1.035,3.309-1.447C432.075,26.576,433.225,26.277,434.328,26.094z"/>
		<path fill="#5656F4" d="M483.112,98.995c-1.839-0.185-3.47-0.482-4.891-0.893c-1.428-0.415-2.735-0.852-3.93-1.313
			c-5.788-2.664-10.245-6.937-13.369-12.818c-3.124-5.874-4.684-12.815-4.684-20.811c0-4.314,0.596-8.452,1.794-12.401
			c1.19-3.949,2.867-7.511,5.026-10.68c2.157-3.169,4.777-5.878,7.854-8.129c3.08-2.251,6.499-3.881,10.268-4.893
			c3.305-0.825,6.843-1.239,10.61-1.239c2.57,0,4.594,0.045,6.063,0.135c1.472,0.091,3.175,0.368,5.101,0.825
			c0.734-0.548,1.586-0.87,2.551-0.964c0.965-0.092,2.225-0.138,3.791-0.138h1.789c2.389,0,4.273,0.023,5.652,0.07
			c1.379,0.045,2.436,0.322,3.171,0.825c0.734,0.505,1.194,1.356,1.379,2.549c0.185,1.195,0.275,2.941,0.275,5.238v49.06h2.894
			c1.285,0,2.317,0.414,3.101,1.241c0.78,0.829,1.17,1.837,1.17,3.031v5.654c0,1.008-0.185,1.811-0.552,2.411
			c-0.365,0.6-1.194,1.127-2.479,1.581h0.138c-0.278,0.094-0.829,0.256-1.652,0.482c-0.829,0.229-1.839,0.438-3.033,0.621
			s-2.547,0.32-4.063,0.415c-1.515,0.09-3.056,0.09-4.618,0c-3.858-0.275-6.707-1.47-8.546-3.582
			c-1.562,0.735-2.754,1.24-3.579,1.513c-3.858,1.563-8.316,2.346-13.369,2.346c-0.738,0-1.428,0-2.068,0
			c-0.645,0-1.194-0.049-1.652-0.14h-0.14V98.995z M486.557,80.943c0.916,0.187,2.275,0.187,4.063,0
			c1.796-0.182,3.931-0.641,6.409-1.38c1.285-0.455,2.182-0.802,2.688-1.032c0.505-0.226,0.987-0.434,1.447-0.62v-33.35
			c-1.289-0.183-2.756-0.345-4.408-0.482c-1.654-0.139-3.404-0.207-5.238-0.207c-3.033,0-5.495,0.645-7.374,1.929
			c-1.886,1.289-3.354,2.988-4.408,5.1c-1.059,2.114-1.771,4.502-2.137,7.167c-0.367,2.668-0.457,5.377-0.274,8.132
			c0.09,1.744,0.252,3.443,0.482,5.098c0.226,1.654,0.689,3.152,1.379,4.48c0.689,1.334,1.604,2.46,2.754,3.38
			C483.092,80.078,484.627,80.668,486.557,80.943z"/>
		<path fill="#5656F4" d="M558.978,94.38c-0.23,1.15-0.712,1.997-1.447,2.551c-0.734,0.55-1.744,0.874-3.033,0.965
			c-1.285,0.09-2.984,0.136-5.098,0.136h-1.515c-2.116,0-3.746-0.046-4.895-0.136c-1.149-0.091-2.021-0.415-2.615-0.965
			c-0.6-0.554-0.965-1.401-1.103-2.551c-0.14-1.147-0.207-2.826-0.207-5.028V44.009h-3.169c-1.194,0-2.206-0.415-3.033-1.242
			c-0.825-0.829-1.241-1.884-1.241-3.171v-5.925c0-1.467,0.459-2.524,1.381-3.168c1.099-0.917,2.387-1.792,3.858-2.619
			c1.285-0.642,2.826-1.24,4.615-1.79c1.794-0.552,3.882-0.825,6.271-0.825c1.839,0,3.467,0.297,4.895,0.895
			c1.421,0.597,2.617,1.356,3.581,2.274c0.965,0.921,1.698,1.952,2.206,3.101c0.502,1.149,0.758,2.227,0.758,3.238l0.14,54.574
			C559.324,91.553,559.207,93.23,558.978,94.38z M538.167-5.602c0.229-1.287,0.712-2.251,1.45-2.894
			c0.731-0.643,1.79-1.01,3.169-1.104c1.376-0.09,3.26-0.138,5.65-0.138c2.664,0,4.755,0.047,6.27,0.138
			c1.517,0.092,2.664,0.437,3.446,1.034c0.776,0.598,1.285,1.562,1.515,2.894c0.229,1.33,0.345,3.237,0.345,5.718v2.342
			c0,2.481-0.115,4.363-0.345,5.65c-0.229,1.287-0.712,2.251-1.447,2.894c-0.738,0.645-1.814,1.014-3.24,1.104
			c-1.424,0.092-3.331,0.138-5.72,0.138c-2.664,0-4.752-0.021-6.27-0.07c-1.516-0.045-2.642-0.365-3.373-0.964
			c-0.738-0.597-1.221-1.564-1.45-2.894c-0.23-1.33-0.343-3.284-0.343-5.857V0.046C537.824-2.433,537.937-4.316,538.167-5.602z"/>
		<path fill="#5656F4" d="M594.186,98.995c-1.839-0.185-3.471-0.482-4.891-0.893c-1.425-0.415-2.736-0.852-3.927-1.313
			c-5.791-2.664-10.249-6.937-13.368-12.818c-3.124-5.874-4.689-12.815-4.689-20.811c0-4.314,0.601-8.452,1.795-12.401
			c1.191-3.949,2.866-7.511,5.028-10.68c2.155-3.169,4.776-5.878,7.856-8.129c3.075-2.251,6.496-3.881,10.264-4.893
			c3.309-0.825,6.843-1.239,10.611-1.239c2.573,0,4.597,0.045,6.066,0.135c1.47,0.091,3.171,0.368,5.1,0.825
			c0.735-0.548,1.581-0.87,2.546-0.964c0.964-0.092,2.227-0.138,3.79-0.138h1.796c2.389,0,4.272,0.023,5.651,0.07
			c1.376,0.045,2.431,0.322,3.165,0.825c0.737,0.505,1.195,1.356,1.382,2.549c0.185,1.195,0.274,2.941,0.274,5.238v49.06h2.894
			c1.289,0,2.321,0.414,3.102,1.241c0.778,0.829,1.17,1.837,1.17,3.031v5.654c0,1.008-0.185,1.811-0.55,2.411
			c-0.368,0.6-1.194,1.127-2.479,1.581h0.136c-0.275,0.094-0.825,0.256-1.652,0.482c-0.827,0.229-1.839,0.438-3.033,0.621
			s-2.548,0.32-4.063,0.415c-1.513,0.09-3.056,0.09-4.615,0c-3.862-0.275-6.713-1.47-8.546-3.582
			c-1.565,0.735-2.76,1.24-3.583,1.513c-3.858,1.563-8.316,2.346-13.369,2.346c-0.735,0-1.425,0-2.065,0
			c-0.644,0-1.197-0.049-1.651-0.14h-0.144V98.995z M597.633,80.943c0.916,0.187,2.272,0.187,4.064,0
			c1.789-0.182,3.926-0.641,6.405-1.38c1.285-0.455,2.182-0.802,2.687-1.032c0.507-0.226,0.989-0.434,1.447-0.62v-33.35
			c-1.285-0.183-2.755-0.345-4.409-0.482c-1.652-0.139-3.398-0.207-5.237-0.207c-3.027,0-5.49,0.645-7.372,1.929
			c-1.886,1.289-3.354,2.988-4.408,5.1c-1.059,2.114-1.768,4.502-2.137,7.167c-0.363,2.668-0.46,5.377-0.275,8.132
			c0.091,1.744,0.253,3.443,0.482,5.098c0.23,1.656,0.688,3.152,1.379,4.48c0.688,1.334,1.605,2.46,2.755,3.38
			C594.163,80.078,595.7,80.668,597.633,80.943z"/>
	</g>
</g>
<g>
	<g>
		<path fill="#646372" d="M63.623,101.87L35.362,28.726h6.864l18.909,49.726c2.511,6.372,4.396,11.938,5.652,16.687h0.404
			c1.838-6.097,3.723-11.707,5.652-16.822l18.909-49.592h6.863L70.352,101.87H63.623z"/>
		<path fill="#646372" d="M109.918,8.403c0-4.307,1.412-6.46,4.24-6.46c1.39,0,2.478,0.563,3.262,1.68
			c0.786,1.123,1.178,2.715,1.178,4.78c0,2.018-0.394,3.612-1.178,4.776c-0.785,1.168-1.873,1.75-3.262,1.75
			C111.333,14.931,109.918,12.755,109.918,8.403z M117.523,101.87h-6.662V28.726h6.662V101.87z"/>
		<path fill="#646372" d="M187.371,82.827c0,6.551-2.491,11.586-7.47,15.109c-4.979,3.518-12.044,5.281-21.197,5.281
			c-9.779,0-17.54-1.502-23.282-4.511v-7.198c7.356,3.681,15.117,5.514,23.282,5.514c7.223,0,12.707-1.198,16.453-3.596
			c3.745-2.4,5.62-5.596,5.62-9.592c0-3.676-1.491-6.773-4.477-9.284c-2.984-2.51-7.884-4.978-14.703-7.4
			c-7.313-2.649-12.448-4.927-15.408-6.832c-2.961-1.906-5.193-4.06-6.697-6.46c-1.502-2.398-2.253-5.328-2.253-8.781
			c0-5.473,2.298-9.802,6.897-12.986c4.599-3.186,11.023-4.78,19.279-4.78c7.894,0,15.386,1.481,22.475,4.441L183.4,37.81
			c-7.179-2.961-13.84-4.442-19.984-4.442c-5.966,0-10.7,0.989-14.198,2.962c-3.498,1.974-5.249,4.71-5.249,8.208
			c0,3.815,1.356,6.865,4.07,9.15c2.713,2.292,8.019,4.847,15.914,7.673c6.594,2.376,11.395,4.521,14.399,6.429
			c3.004,1.904,5.259,4.067,6.763,6.49C186.62,76.706,187.371,79.554,187.371,82.827z"/>
		<path fill="#646372" d="M225.524,97.296c4.218,0,7.894-0.359,11.038-1.079v5.384c-3.232,1.08-6.955,1.617-11.172,1.617
			c-6.459,0-11.227-1.728-14.3-5.186c-3.074-3.451-4.609-8.883-4.609-16.281V34.513h-10.833V30.61l10.833-3.029l3.365-16.551h3.432
			v17.696h21.464v5.788h-21.464v46.298c0,5.604,0.986,9.755,2.961,12.449C218.212,95.949,221.307,97.296,225.524,97.296z"/>
		<path fill="#646372" d="M296.785,101.87l-1.685-11.571h-0.538c-3.678,4.708-7.456,8.041-11.337,9.993
			c-3.882,1.951-8.468,2.928-13.762,2.928c-7.179,0-12.764-1.841-16.755-5.519c-3.993-3.678-5.988-8.769-5.988-15.275
			c0-7.131,2.971-12.67,8.917-16.619c5.944-3.948,14.548-6.032,25.805-6.259l13.93-0.402v-4.85c0-6.954-1.411-12.203-4.242-15.747
			c-2.825-3.542-7.376-5.315-13.657-5.315c-6.772,0-13.795,1.884-21.062,5.652l-2.49-5.786c8.028-3.77,15.97-5.652,23.821-5.652
			c8.029,0,14.028,2.085,17.999,6.259c3.972,4.173,5.954,10.678,5.954,19.512v48.65H296.785z M269.867,97.158
			c7.807,0,13.964-2.23,18.474-6.695c4.507-4.463,6.76-10.663,6.76-18.606v-7.199l-12.784,0.537
			c-10.275,0.496-17.597,2.101-21.971,4.813c-4.373,2.716-6.559,6.942-6.559,12.685c0,4.574,1.402,8.131,4.206,10.663
			C260.792,95.892,264.753,97.158,269.867,97.158z"/>
	</g>
</g>
</svg>
